<?xml version="1.0" standalone="no"?>
<!DOCTYPE svg PUBLIC "-//W3C//DTD SVG 20010904//EN"
 "http://www.w3.org/TR/2001/REC-SVG-20010904/DTD/svg10.dtd">
<svg version="1.0" xmlns="http://www.w3.org/2000/svg"
 width="519.000000pt" height="285.000000pt" viewBox="0 0 519.000000 285.000000"
 preserveAspectRatio="xMidYMid meet">

<g transform="translate(0.000000,285.000000) scale(0.100000,-0.100000)"
fill="#000000" stroke="none">
<path d="M0 1425 l0 -1425 2595 0 2595 0 0 1425 0 1425 -2595 0 -2595 0 0
-1425z m2752 334 c-2 -153 0 -190 10 -187 7 3 14 14 16 26 4 26 42 29 80 8 21
-11 22 -14 7 -26 -36 -30 -265 -22 -265 10 0 8 43 27 75 32 19 3 20 12 23 166
l2 162 28 0 27 0 -3 -191z m-174 -196 c-5 -42 34 -56 156 -56 122 0 184 19
167 52 -17 31 -14 34 35 27 58 -8 132 -40 141 -61 20 -54 -125 -95 -336 -95
-208 0 -346 34 -346 85 0 25 52 54 112 65 75 12 74 12 71 -17z m-261 3 c4 -5
2 -11 -4 -13 -25 -9 -12 -21 27 -28 22 -4 40 -8 40 -9 0 -1 -15 -31 -34 -66
-26 -48 -32 -69 -25 -82 8 -14 6 -16 -8 -11 -35 12 -73 56 -73 85 0 22 8 32
42 49 42 22 42 22 18 31 -14 5 -65 11 -115 13 -90 3 -125 10 -125 25 0 5 10
11 23 13 36 8 225 2 234 -7z m-627 -511 c0 -8 -7 -15 -15 -15 -8 0 -15 7 -15
15 0 8 7 15 15 15 8 0 15 -7 15 -15z m710 5 c0 -11 -60 -44 -67 -36 -3 3 10
14 28 25 39 24 39 24 39 11z m287 -26 c25 -16 49 -54 34 -54 -6 0 -21 11 -35
25 -29 29 -89 34 -123 10 -27 -19 -47 -78 -38 -113 11 -47 43 -72 92 -72 49 0
93 33 93 70 0 18 -6 20 -52 20 -37 0 -49 3 -41 11 5 5 34 9 64 7 53 -3 54 -4
52 -33 -5 -67 -83 -117 -149 -95 -82 27 -113 134 -58 199 41 49 106 59 161 25z
m-1085 -1 c24 -22 24 -77 -2 -103 -14 -14 -33 -20 -65 -20 l-45 0 0 -50 c0
-27 -4 -50 -10 -50 -6 0 -10 47 -10 120 l0 120 57 0 c38 0 62 -5 75 -17z m88
-134 c0 -72 -3 -89 -15 -89 -12 0 -15 16 -15 88 0 49 3 92 6 95 17 17 24 -11
24 -94z m78 85 c8 -14 10 -14 21 0 16 19 55 22 49 4 -3 -7 -13 -15 -24 -17
-37 -6 -44 -22 -44 -92 0 -55 -3 -69 -15 -69 -12 0 -15 17 -15 95 0 91 8 114
28 79z m122 -50 c0 -36 4 -74 10 -84 14 -26 57 -34 86 -16 20 14 23 25 26 88
4 105 22 91 26 -19 2 -78 0 -93 -13 -93 -8 0 -15 7 -15 16 0 14 -1 14 -16 0
-27 -27 -63 -31 -92 -9 -25 18 -27 27 -30 102 -2 51 1 81 8 81 6 0 10 -27 10
-66z m230 40 c0 -12 5 -11 26 5 49 39 106 23 130 -36 19 -43 11 -83 -22 -114
-30 -28 -85 -31 -114 -4 -20 18 -20 18 -20 -43 0 -48 -3 -62 -15 -62 -13 0
-15 21 -15 133 0 74 3 137 6 140 10 10 24 -2 24 -19z m240 -75 c0 -72 -3 -89
-15 -89 -12 0 -15 16 -15 88 0 49 3 92 6 95 17 17 24 -11 24 -94z m553 81 l25
-20 5 21 c13 48 27 4 27 -82 0 -72 -3 -89 -15 -89 -8 0 -15 7 -15 17 0 14 -2
15 -17 1 -49 -42 -123 -23 -143 36 -31 94 60 174 133 116z m127 5 c0 -8 4 -15
9 -15 5 0 14 7 21 15 17 21 63 19 92 -5 25 -19 26 -19 43 0 27 30 79 26 104
-6 27 -34 31 -164 6 -164 -12 0 -15 14 -15 69 0 75 -14 101 -52 101 -42 0 -58
-28 -58 -102 0 -54 -3 -68 -15 -68 -12 0 -15 14 -15 69 0 75 -14 101 -53 101
-46 0 -67 -39 -67 -121 0 -27 -4 -49 -10 -49 -6 0 -10 38 -10 95 0 57 4 95 10
95 6 0 10 -7 10 -15z m484 -7 c14 -13 28 -35 32 -50 l6 -28 -81 0 c-71 0 -81
-2 -81 -17 1 -60 82 -79 122 -30 9 12 20 19 24 15 13 -14 -6 -39 -42 -54 -75
-32 -145 27 -130 109 13 71 98 101 150 55z m184 6 c12 -8 22 -22 22 -30 0 -20
-13 -17 -28 7 -18 29 -76 23 -80 -8 -3 -23 -2 -24 76 -54 29 -10 33 -16 30
-43 -4 -41 -42 -61 -86 -45 -17 6 -33 17 -36 26 -10 25 0 27 23 4 33 -33 81
-25 81 14 0 18 -10 26 -52 41 -46 17 -53 23 -56 49 -6 50 57 74 106 39z
m-1179 -400 c-10 -13 -10 -17 2 -25 12 -7 11 -9 -2 -9 -12 0 -20 -14 -27 -47
l-10 -48 2 53 c3 48 23 92 42 92 4 0 1 -7 -7 -16z m521 12 c0 -3 -4 -8 -10
-11 -5 -3 -10 -1 -10 4 0 6 5 11 10 11 6 0 10 -2 10 -4z m-2777 -13 c-17 -3
-24 -14 -28 -41 -11 -61 -26 -95 -19 -42 3 25 8 53 10 62 3 11 -2 18 -18 21
-13 2 0 4 27 4 28 0 40 -2 28 -4z m256 -64 c-7 -35 -14 -58 -17 -51 -2 7 -8 9
-14 6 -5 -4 -3 5 6 18 20 31 11 58 -20 58 -43 0 -60 -64 -21 -80 12 -5 17 -9
10 -9 -27 -2 -43 13 -43 39 0 39 26 63 63 57 23 -3 31 0 35 15 2 10 7 17 9 14
2 -2 -1 -33 -8 -67z m4330 5 c-13 -73 -24 -87 -15 -19 8 58 16 88 22 82 2 -2
-1 -30 -7 -63z m-3970 28 c-16 -6 -23 -73 -8 -84 12 -8 11 -9 -1 -5 -10 3 -15
18 -15 48 -1 60 3 71 20 56 7 -7 9 -13 4 -15z m1297 13 c14 -13 14 -15 1 -15
-21 0 -32 -56 -15 -77 11 -14 11 -15 -2 -11 -20 6 -23 118 -3 118 2 0 11 -7
19 -15z m919 -13 c-19 -4 -28 -62 -13 -80 11 -13 10 -14 -2 -10 -10 3 -15 19
-15 49 0 53 11 74 30 56 11 -10 11 -13 0 -15z m-2715 -6 c18 -23 8 -59 -22
-76 -50 -27 -86 17 -54 65 18 28 57 33 76 11z m268 -19 c6 -53 -48 -86 -83
-51 -31 31 7 88 55 82 19 -2 26 -10 28 -31z m107 16 c5 -15 4 -16 -6 -5 -17
16 -49 16 -49 -1 0 -7 10 -17 22 -22 28 -12 35 -40 12 -49 -20 -8 -54 2 -54
15 0 5 9 4 20 -3 16 -10 22 -10 32 1 9 9 10 15 2 18 -29 10 -47 31 -41 47 8
22 53 21 62 -1z m180 -23 c-6 -36 -4 -41 17 -49 l23 -10 -23 0 c-28 -1 -36 18
-28 64 9 49 19 44 11 -5z m80 8 c-11 -56 -16 -68 -25 -63 -4 3 -3 20 2 38 6
17 12 38 14 45 7 27 15 10 9 -20z m103 12 c4 -12 2 -13 -9 -2 -18 16 -49 15
-49 -2 0 -8 12 -17 26 -20 19 -5 25 -12 22 -29 -4 -28 -40 -34 -58 -10 -12 15
-12 16 0 6 19 -18 50 -16 50 2 0 9 -11 20 -25 25 -24 9 -32 29 -18 44 12 12
56 2 61 -14z m99 -59 c-7 -30 -18 -56 -25 -57 -7 -1 -8 0 -2 3 5 2 10 11 10
18 0 27 24 120 27 105 1 -8 -3 -39 -10 -69z m57 39 c-6 -35 -4 -41 17 -50 l24
-10 -25 3 c-27 2 -37 29 -26 73 10 39 17 28 10 -16z m71 -15 c-3 -26 -9 -45
-12 -42 -2 3 -1 26 2 52 4 25 10 44 12 41 3 -3 2 -26 -2 -51z m123 43 c14 -14
16 -38 3 -38 -5 0 -8 8 -7 18 1 12 -7 18 -26 20 -23 3 -30 -2 -38 -24 -16 -40
8 -62 47 -46 26 11 27 11 9 -3 -52 -40 -99 8 -60 63 17 24 53 29 72 10z m141
-23 c0 -43 -21 -98 -39 -103 -12 -4 -11 -1 3 15 19 22 23 48 6 37 -6 -3 -4 5
5 18 20 31 11 58 -20 58 -42 0 -59 -60 -21 -78 14 -7 17 -11 7 -11 -22 -1 -40
19 -40 43 0 32 30 57 67 54 30 -2 33 -5 32 -33z m126 -5 c0 -27 -6 -37 -27
-50 -50 -27 -86 17 -53 66 13 20 23 25 48 22 29 -3 32 -6 32 -38z m101 22 c1
-7 0 -8 -3 -2 -7 15 -43 12 -43 -3 0 -8 11 -19 25 -25 32 -15 32 -40 1 -48
-26 -6 -46 1 -46 17 0 5 9 4 20 -3 16 -10 22 -10 32 1 9 9 10 15 2 18 -29 10
-47 31 -41 47 8 20 49 18 53 -2z m135 2 c-11 -8 -23 -30 -27 -50 -9 -49 -17
-35 -9 18 6 37 10 43 32 44 24 2 24 2 4 -12z m129 -3 c6 -11 6 -22 1 -25 -5
-3 -11 3 -14 14 -8 30 -45 26 -58 -7 -5 -14 -8 -32 -5 -40 7 -16 38 -17 54 -1
6 6 15 9 18 5 4 -3 -6 -12 -20 -19 -33 -14 -59 -2 -64 31 -8 49 65 83 88 42z
m154 5 c-10 -8 -24 -31 -31 -52 l-12 -39 6 45 c7 55 7 55 33 57 21 2 21 1 4
-11z m126 0 c18 -23 8 -59 -22 -76 -50 -27 -86 17 -54 65 18 28 57 33 76 11z
m273 -26 c-3 -19 -10 -42 -15 -50 -6 -10 -7 0 -3 26 4 27 2 45 -5 49 -19 12
-58 -4 -65 -26 -8 -25 13 -52 37 -46 10 3 16 1 12 -4 -8 -13 -38 -11 -52 3
-35 35 2 90 59 86 36 -3 37 -4 32 -38z m57 -7 c0 -32 17 -29 35 6 8 17 20 33
27 37 13 8 -26 -61 -48 -85 -10 -11 -14 -7 -23 25 -6 22 -11 46 -11 54 0 13 1
13 10 0 5 -8 10 -25 10 -37z m180 28 c22 -43 -22 -91 -70 -76 -25 8 -27 56 -4
79 21 22 61 20 74 -3z m90 12 c-22 -8 -40 -34 -40 -59 0 -13 -5 -26 -10 -29
-7 -4 -9 3 -5 19 3 14 7 36 10 49 3 16 12 23 32 24 15 1 21 -1 13 -4z m44 -30
c-4 -21 -11 -45 -16 -53 -9 -14 -4 30 8 73 9 32 15 17 8 -20z m204 0 c5 -51
-65 -86 -88 -44 -14 28 -13 38 11 62 13 13 30 19 47 17 22 -2 28 -9 30 -35z
m107 20 c5 -15 4 -16 -6 -5 -17 16 -49 15 -49 -1 0 -8 11 -19 25 -25 28 -13
33 -37 9 -46 -20 -8 -54 2 -54 15 0 5 9 4 20 -3 16 -10 22 -10 32 1 9 9 10 15
2 18 -29 10 -47 31 -41 47 8 22 53 21 62 -1z m213 5 c15 -15 16 -38 2 -38 -5
0 -9 3 -9 8 4 23 -4 32 -26 32 -33 0 -54 -46 -31 -69 13 -12 20 -12 43 -3 26
11 27 11 9 -3 -52 -40 -99 8 -60 63 17 24 53 29 72 10z m62 -18 c-5 -10 -10
-29 -11 -42 0 -13 -3 -17 -6 -10 -8 20 7 83 18 77 6 -4 5 -13 -1 -25z m68 -7
c2 -18 -2 -41 -7 -50 -8 -14 -9 -8 -5 24 6 38 4 44 -17 53 l-24 10 25 -3 c20
-2 26 -8 28 -34z m130 -56 c15 -4 15 -5 1 -6 -28 -2 -39 22 -31 65 l7 39 3
-47 c2 -34 8 -48 20 -51z m56 44 c-4 -22 -11 -41 -16 -41 -5 0 -7 8 -4 18 3 9
8 30 12 45 10 42 16 26 8 -22z m52 -1 c-12 -48 -21 -36 -12 16 4 19 11 32 15
30 5 -3 3 -24 -3 -46z m72 13 c2 -18 -1 -41 -7 -50 -7 -13 -8 -7 -4 24 5 38 3
44 -18 53 l-24 10 25 -3 c20 -2 26 -8 28 -34z m142 21 c0 -36 -14 -74 -27 -74
-12 0 -13 3 -3 14 16 21 9 60 -13 64 -45 9 -67 -61 -24 -78 l22 -9 -22 0 c-39
-1 -50 47 -20 87 12 15 87 12 87 -4z m178 -4 c4 -12 2 -13 -9 -2 -7 6 -21 12
-31 12 -21 0 -43 -41 -35 -64 7 -19 38 -21 55 -4 9 9 12 9 12 0 0 -17 -48 -26
-65 -12 -35 29 -2 93 44 88 13 -2 26 -10 29 -18z m127 -20 c0 -27 -6 -37 -27
-50 -50 -27 -86 17 -53 66 13 20 23 25 48 22 29 -3 32 -6 32 -38z m59 3 c-10
-57 -26 -77 -18 -23 6 46 11 60 20 60 3 0 2 -17 -2 -37z m70 20 c3 -10 1 -34
-4 -53 l-9 -35 1 35 c0 56 -1 58 -24 63 -20 4 -20 4 4 6 18 1 28 -5 32 -16z
m102 -1 c1 -7 0 -8 -3 -2 -7 15 -43 12 -43 -3 0 -8 11 -19 25 -25 28 -13 31
-24 10 -42 -18 -15 -47 -10 -52 10 -4 12 -3 12 5 2 10 -15 43 -13 44 3 0 6
-10 15 -23 22 -13 7 -24 17 -23 23 1 5 2 15 3 21 2 15 54 7 57 -9z m124 2 c32
-38 -36 -106 -74 -74 -21 16 -20 49 1 72 20 22 56 23 73 2z m194 -24 c-10 -53
-26 -74 -19 -24 4 27 2 45 -5 49 -19 12 -58 -4 -65 -26 -8 -25 13 -52 37 -46
10 3 16 1 12 -4 -8 -13 -38 -11 -52 3 -16 16 -15 39 4 66 12 18 24 22 55 20
39 -3 39 -3 33 -38z m-3437 -106 c-7 -7 -37 7 -37 17 0 6 9 5 21 -1 11 -7 19
-14 16 -16z"/>
<path d="M1490 980 l0 -50 39 0 c60 0 85 34 61 81 -8 14 -21 19 -55 19 l-45 0
0 -50z"/>
<path d="M2146 959 c-20 -16 -26 -29 -26 -58 0 -47 24 -71 73 -71 43 0 67 28
67 76 0 35 -37 74 -70 74 -10 0 -29 -9 -44 -21z"/>
<path d="M2826 959 c-20 -16 -26 -29 -26 -58 0 -47 24 -71 73 -71 43 0 67 28
67 76 0 35 -37 74 -70 74 -10 0 -29 -9 -44 -21z"/>
<path d="M3422 964 c-12 -8 -22 -24 -22 -35 0 -17 7 -19 65 -19 58 0 65 2 65
19 0 23 -36 51 -65 51 -11 0 -31 -7 -43 -16z"/>
<path d="M325 530 c-34 -37 14 -80 49 -44 22 22 17 58 -10 62 -11 2 -29 -7
-39 -18z"/>
<path d="M592 538 c-16 -16 -15 -57 2 -64 27 -10 57 15 54 44 -3 30 -35 41
-56 20z"/>
<path d="M1674 524 c-15 -23 -16 -27 -2 -41 21 -20 56 -8 64 22 12 49 -34 63
-62 19z"/>
<path d="M2326 534 c-20 -19 -20 -38 -1 -54 30 -25 82 25 60 59 -9 16 -41 13
-59 -5z"/>
<path d="M2832 538 c-32 -32 0 -84 37 -61 24 15 21 67 -4 71 -11 1 -26 -3 -33
-10z"/>
<path d="M3166 529 c-17 -25 -6 -59 19 -59 22 0 46 30 43 54 -4 30 -42 33 -62
5z"/>
<path d="M4381 536 c-17 -20 -10 -60 10 -64 23 -4 51 26 47 52 -4 26 -40 33
-57 12z"/>
<path d="M4735 534 c-19 -20 -16 -43 7 -58 25 -15 63 23 53 53 -8 25 -37 27
-60 5z"/>
</g>
</svg>
